<svg xmlns="http://www.w3.org/2000/svg" xmlns:xlink="http://www.w3.org/1999/xlink" width="1920" zoomAndPan="magnify" viewBox="0 0 1440 809.999993" height="1080" preserveAspectRatio="xMidYMid meet" version="1.0"><defs><g/><clipPath id="7f3216c002"><path d="M 558 442.539062 L 882 442.539062 L 882 594 L 558 594 Z M 558 442.539062 " clip-rule="nonzero"/></clipPath><clipPath id="aee742b830"><path d="M 578 581 L 862 581 L 862 633.789062 L 578 633.789062 Z M 578 581 " clip-rule="nonzero"/></clipPath></defs><rect x="-144" width="1728" fill="#ffffff" y="-80.999999" height="971.999992" fill-opacity="1"/><rect x="-144" width="1728" fill="#ffffff" y="-80.999999" height="971.999992" fill-opacity="1"/><rect x="-144" width="1728" fill="#d9d9d9" y="-80.999999" height="971.999992" fill-opacity="1"/><g clip-path="url(#7f3216c002)"><path fill="#e4b344" d="M 623.917969 486.859375 L 658.503906 525.378906 L 653.484375 532.140625 L 630.996094 514.839844 Z M 719.992188 457.4375 L 770.035156 524.839844 L 719.992188 580.578125 L 669.960938 524.84375 Z M 816.082031 486.855469 L 809 514.847656 L 786.519531 532.144531 L 781.492188 525.378906 Z M 750.628906 559.753906 L 775.441406 532.121094 L 779.480469 537.558594 Z M 660.527344 537.554688 L 664.558594 532.125 L 689.320312 559.707031 Z M 603.402344 574.359375 L 611.671875 571.117188 L 578.039062 485.3125 L 719.992188 593.871094 L 788.351562 541.941406 L 790.59375 540.21875 L 791.8125 539.28125 L 861.960938 485.3125 L 828.328125 571.117188 L 836.597656 574.359375 L 881.90625 458.761719 L 820.375 506.097656 L 833.519531 454.144531 L 776.089844 518.101562 L 719.992188 442.535156 L 663.90625 518.101562 L 606.480469 454.140625 L 619.621094 506.089844 L 558.09375 458.761719 L 603.402344 574.359375 " fill-opacity="1" fill-rule="nonzero"/></g><g clip-path="url(#aee742b830)"><path fill="#e4b344" d="M 719.996094 594.488281 L 733.957031 610.417969 L 737.675781 614.660156 L 728.671875 619.308594 L 719.996094 623.789062 L 711.308594 619.308594 L 702.304688 614.660156 L 706.019531 610.417969 Z M 719.996094 633.789062 L 748.054688 619.308594 L 861.394531 619.308594 L 861.394531 610.417969 L 745.761719 610.417969 L 719.996094 581.007812 L 694.226562 610.417969 L 578.597656 610.417969 L 578.597656 619.308594 L 691.929688 619.308594 L 719.996094 633.789062 " fill-opacity="1" fill-rule="nonzero"/></g><path fill="#e4b344" d="M 600.332031 601.675781 L 687.886719 601.675781 L 687.886719 592.789062 L 600.332031 592.789062 L 600.332031 601.675781 " fill-opacity="1" fill-rule="nonzero"/><path fill="#e4b344" d="M 752.09375 601.675781 L 839.648438 601.675781 L 839.648438 592.789062 L 752.09375 592.789062 L 752.09375 601.675781 " fill-opacity="1" fill-rule="nonzero"/><path stroke-linecap="butt" transform="matrix(1.913755, 0, 0, 1.913755, 539.144619, 532.376657)" fill="none" stroke-linejoin="miter" d="M -0.0000459038 0.499214 L 189.005854 0.499214 " stroke="#ffffff" stroke-width="1" stroke-opacity="1" stroke-miterlimit="4"/><path stroke-linecap="butt" transform="matrix(1.913755, 0, 0, 1.913755, 539.144619, 541.945433)" fill="none" stroke-linejoin="miter" d="M -0.0000459038 0.500018 L 189.005854 0.500018 " stroke="#8c52ff" stroke-width="1" stroke-opacity="1" stroke-miterlimit="4"/><g fill="#8c52ff" fill-opacity="1"><g transform="translate(564.245788, 701.25227)"><g><path d="M 8.214844 -49.070312 C 8.902344 -34.613281 8.671875 -12.097656 7.457031 0 L 7.609375 0.226562 C 8.519531 0.0742188 9.355469 0 10.269531 0 C 11.183594 0 12.019531 0.0742188 12.933594 0.226562 L 13.085938 0 C 12.476562 -4.335938 12.324219 -9.507812 12.324219 -15.214844 L 12.324219 -33.398438 C 12.324219 -38.039062 12.398438 -38.265625 15.292969 -34.613281 L 41.839844 -1.066406 C 42.679688 0.0742188 43.894531 0.761719 45.113281 0.761719 C 46.175781 0.761719 46.480469 -0.152344 46.558594 -1.597656 C 46.9375 -18.941406 46.863281 -32.179688 48.078125 -49.070312 L 47.925781 -49.296875 C 47.015625 -49.144531 46.175781 -49.070312 45.265625 -49.070312 C 44.351562 -49.070312 43.515625 -49.144531 42.601562 -49.296875 L 42.449219 -49.070312 C 43.058594 -44.730469 43.210938 -39.558594 43.210938 -33.851562 L 43.210938 -13.542969 C 43.058594 -9.355469 41.992188 -11.105469 38.722656 -15.441406 L 12.628906 -49.21875 C 12.628906 -49.21875 11.867188 -49.070312 11.5625 -49.070312 C 8.976562 -49.070312 8.367188 -49.296875 8.367188 -49.296875 Z M 8.214844 -49.070312 "/></g></g></g><g fill="#8c52ff" fill-opacity="1"><g transform="translate(621.142227, 701.25227)"><g><path d="M 7.910156 -33.851562 L 7.910156 -15.214844 C 7.910156 -9.507812 7.757812 -4.109375 7.152344 0 L 7.304688 0.226562 C 8.214844 0.0742188 10.269531 0 11.183594 0 C 12.097656 0 14.148438 0.0742188 15.0625 0.226562 L 15.214844 0 C 14.605469 -4.335938 14.453125 -9.507812 14.453125 -15.214844 L 14.453125 -33.851562 C 14.453125 -39.558594 14.605469 -45.035156 15.214844 -49.070312 L 15.0625 -49.296875 C 14.148438 -49.144531 12.097656 -49.070312 11.183594 -49.070312 C 10.269531 -49.070312 8.214844 -49.144531 7.304688 -49.296875 L 7.152344 -49.070312 C 7.757812 -44.730469 7.910156 -39.558594 7.910156 -33.851562 Z M 7.910156 -33.851562 "/></g></g></g><g fill="#8c52ff" fill-opacity="1"><g transform="translate(645.78745, 701.25227)"><g><path d="M 30.960938 -20.921875 C 28.453125 -20.84375 25.257812 -20.769531 23.050781 -20.769531 C 20.84375 -20.769531 16.738281 -20.84375 15.0625 -20.921875 L 23.125 -39.636719 L 23.277344 -39.636719 C 26.398438 -32.484375 28.910156 -26.246094 30.960938 -20.921875 Z M 13.617188 -17.34375 C 15.519531 -17.496094 20.769531 -17.574219 23.429688 -17.574219 C 26.320312 -17.574219 30.507812 -17.496094 32.332031 -17.34375 C 36.058594 -7.378906 37.734375 -1.445312 38.265625 0.226562 C 39.558594 0 40.777344 0 42.070312 0 C 43.363281 0 45.339844 0 46.632812 0.226562 C 42.832031 -7.457031 32.789062 -33.398438 25.789062 -50.058594 L 23.660156 -50.058594 C 16.355469 -33.167969 8.902344 -16.585938 1.21875 0.226562 C 2.128906 0 3.042969 0 3.878906 0 C 4.714844 0 6.390625 0 7.304688 0.226562 C 8.519531 -4.414062 10.878906 -10.652344 13.617188 -17.34375 Z M 13.617188 -17.34375 "/></g></g></g><g fill="#8c52ff" fill-opacity="1"><g transform="translate(695.914186, 701.25227)"><g><path d="M 28.910156 -50.058594 C 16.050781 -50.058594 3.957031 -38.949219 3.957031 -23.964844 C 3.957031 -10.800781 11.488281 0.761719 27.84375 0.761719 C 34.84375 0.761719 41.460938 -1.371094 46.558594 -7.53125 C 46.480469 -8.445312 46.328125 -10.117188 46.101562 -10.800781 L 45.570312 -11.03125 C 40.167969 -5.097656 35.601562 -3.117188 28.527344 -3.117188 C 18.867188 -3.117188 11.792969 -13.542969 11.792969 -25.410156 C 11.792969 -40.851562 21.605469 -46.480469 27.84375 -46.480469 C 34.691406 -46.480469 40.242188 -43.742188 43.363281 -37.503906 L 44.277344 -37.582031 C 44.503906 -41.460938 44.808594 -42.753906 45.644531 -46.027344 L 45.492188 -46.253906 C 45.492188 -46.253906 38.191406 -50.058594 28.910156 -50.058594 Z M 28.910156 -50.058594 "/></g></g></g><g fill="#8c52ff" fill-opacity="1"><g transform="translate(749.691991, 701.25227)"><g><path d="M 27.007812 -46.710938 C 37.734375 -46.710938 44.578125 -39.40625 44.578125 -23.582031 C 44.578125 -9.964844 38.265625 -2.585938 29.59375 -2.585938 C 20.464844 -2.585938 11.792969 -10.269531 11.792969 -24.875 C 11.792969 -40.851562 19.703125 -46.710938 27.007812 -46.710938 Z M 52.414062 -25.027344 C 52.414062 -40.089844 41.6875 -50.058594 27.996094 -50.058594 C 14.378906 -50.058594 3.957031 -38.492188 3.957031 -23.582031 C 3.957031 -8.597656 14.988281 0.761719 28.070312 0.761719 C 42.601562 0.761719 52.414062 -9.8125 52.414062 -25.027344 Z M 52.414062 -25.027344 "/></g></g></g><g fill="#8c52ff" fill-opacity="1"><g transform="translate(808.337915, 701.25227)"><g><path d="M 14.683594 -50.363281 C 12.019531 -34.996094 7.835938 -13.996094 4.867188 0.226562 C 5.707031 0 6.464844 0 7.378906 0 C 8.214844 0 8.824219 0 9.660156 0.226562 C 10.800781 -7.757812 13.390625 -24.722656 15.214844 -36.210938 L 15.59375 -36.210938 C 21.300781 -24.117188 26.703125 -11.792969 31.570312 0 L 33.015625 0 C 38.492188 -12.476562 43.894531 -24.039062 49.90625 -35.984375 L 50.132812 -35.90625 C 51.730469 -23.964844 53.253906 -12.324219 54.394531 0.226562 C 55.535156 0 56.980469 0 58.121094 0 C 59.261719 0 61.242188 0 62.382812 0.226562 C 59.644531 -16.050781 57.359375 -31.875 55.230469 -50.363281 L 53.328125 -50.363281 L 34.84375 -12.628906 L 34.234375 -12.628906 C 28.222656 -25.105469 22.746094 -37.277344 17.191406 -50.363281 Z M 14.683594 -50.363281 "/></g></g></g><g fill="#e5b344" fill-opacity="1"><g transform="translate(594.66543, 750.902435)"><g><path d="M 18.953125 0 L 16.125 0 L 12.25 -12.75 L 8.328125 0 L 5.484375 0 L 0.0625 -16.34375 L 3.03125 -16.34375 L 7 -3.0625 L 10.953125 -16.3125 L 13.65625 -16.34375 L 17.625 -3.0625 L 21.5625 -16.34375 L 24.421875 -16.34375 Z M 18.953125 0 "/></g></g></g><g fill="#e5b344" fill-opacity="1"><g transform="translate(625.449031, 750.902435)"><g><path d="M 13.8125 -13.859375 L 4.90625 -13.859375 L 4.90625 -9.453125 L 12.890625 -9.453125 L 12.890625 -6.984375 L 4.90625 -6.984375 L 4.90625 -2.46875 L 14.09375 -2.46875 L 14.09375 0 L 2.140625 0 L 2.140625 -16.34375 L 13.8125 -16.34375 Z M 13.8125 -13.859375 "/></g></g></g><g fill="#e5b344" fill-opacity="1"><g transform="translate(647.37237, 750.902435)"><g><path d="M 2.140625 -16.34375 L 9.25 -16.34375 C 10.9375 -16.34375 12.269531 -15.976562 13.25 -15.25 C 14.238281 -14.53125 14.734375 -13.53125 14.734375 -12.25 C 14.734375 -11.332031 14.472656 -10.550781 13.953125 -9.90625 C 13.441406 -9.257812 12.742188 -8.828125 11.859375 -8.609375 C 12.953125 -8.421875 13.804688 -7.960938 14.421875 -7.234375 C 15.046875 -6.503906 15.359375 -5.585938 15.359375 -4.484375 C 15.359375 -3.078125 14.828125 -1.976562 13.765625 -1.1875 C 12.710938 -0.394531 11.257812 0 9.40625 0 L 2.140625 0 Z M 4.90625 -13.890625 L 4.90625 -9.578125 L 9.109375 -9.578125 C 9.972656 -9.578125 10.65625 -9.769531 11.15625 -10.15625 C 11.65625 -10.539062 11.90625 -11.078125 11.90625 -11.765625 C 11.90625 -12.453125 11.660156 -12.976562 11.171875 -13.34375 C 10.679688 -13.707031 9.992188 -13.890625 9.109375 -13.890625 Z M 4.90625 -7.140625 L 4.90625 -2.453125 L 9.109375 -2.453125 C 10.191406 -2.453125 11.03125 -2.65625 11.625 -3.0625 C 12.226562 -3.476562 12.53125 -4.066406 12.53125 -4.828125 C 12.53125 -5.546875 12.226562 -6.109375 11.625 -6.515625 C 11.019531 -6.929688 10.179688 -7.140625 9.109375 -7.140625 Z M 4.90625 -7.140625 "/></g></g></g><g fill="#e5b344" fill-opacity="1"><g transform="translate(670.461524, 750.902435)"><g/></g></g><g fill="#e5b344" fill-opacity="1"><g transform="translate(683.104887, 750.902435)"><g><path d="M 7.515625 -16.453125 C 9.628906 -16.453125 11.535156 -15.894531 13.234375 -14.78125 L 12.09375 -12.34375 C 10.425781 -13.351562 8.832031 -13.859375 7.3125 -13.859375 C 6.476562 -13.859375 5.820312 -13.710938 5.34375 -13.421875 C 4.875 -13.128906 4.640625 -12.707031 4.640625 -12.15625 C 4.640625 -11.613281 4.859375 -11.148438 5.296875 -10.765625 C 5.734375 -10.390625 6.273438 -10.113281 6.921875 -9.9375 C 7.578125 -9.757812 8.285156 -9.53125 9.046875 -9.25 C 9.816406 -8.976562 10.523438 -8.691406 11.171875 -8.390625 C 11.828125 -8.085938 12.367188 -7.613281 12.796875 -6.96875 C 13.234375 -6.320312 13.453125 -5.539062 13.453125 -4.625 C 13.453125 -3.1875 12.878906 -2.039062 11.734375 -1.1875 C 10.585938 -0.332031 9.101562 0.09375 7.28125 0.09375 C 6.039062 0.09375 4.835938 -0.140625 3.671875 -0.609375 C 2.503906 -1.078125 1.484375 -1.707031 0.609375 -2.5 L 1.796875 -4.875 C 2.617188 -4.113281 3.523438 -3.523438 4.515625 -3.109375 C 5.503906 -2.703125 6.441406 -2.5 7.328125 -2.5 C 8.296875 -2.5 9.046875 -2.671875 9.578125 -3.015625 C 10.117188 -3.367188 10.390625 -3.859375 10.390625 -4.484375 C 10.390625 -5.046875 10.171875 -5.515625 9.734375 -5.890625 C 9.296875 -6.273438 8.75 -6.554688 8.09375 -6.734375 C 7.445312 -6.910156 6.738281 -7.128906 5.96875 -7.390625 C 5.207031 -7.648438 4.5 -7.921875 3.84375 -8.203125 C 3.195312 -8.492188 2.65625 -8.957031 2.21875 -9.59375 C 1.78125 -10.226562 1.5625 -11 1.5625 -11.90625 C 1.5625 -13.289062 2.101562 -14.394531 3.1875 -15.21875 C 4.28125 -16.039062 5.722656 -16.453125 7.515625 -16.453125 Z M 7.515625 -16.453125 "/></g></g></g><g fill="#e5b344" fill-opacity="1"><g transform="translate(704.235475, 750.902435)"><g><path d="M 13.8125 -13.859375 L 4.90625 -13.859375 L 4.90625 -9.453125 L 12.890625 -9.453125 L 12.890625 -6.984375 L 4.90625 -6.984375 L 4.90625 -2.46875 L 14.09375 -2.46875 L 14.09375 0 L 2.140625 0 L 2.140625 -16.34375 L 13.8125 -16.34375 Z M 13.8125 -13.859375 "/></g></g></g><g fill="#e5b344" fill-opacity="1"><g transform="translate(726.158815, 750.902435)"><g><path d="M 12.515625 0 L 9.53125 -4.953125 C 9.375 -4.929688 9.125 -4.921875 8.78125 -4.921875 L 4.90625 -4.921875 L 4.90625 0 L 2.140625 0 L 2.140625 -16.34375 L 8.78125 -16.34375 C 10.863281 -16.34375 12.476562 -15.851562 13.625 -14.875 C 14.78125 -13.90625 15.359375 -12.535156 15.359375 -10.765625 C 15.359375 -9.453125 15.066406 -8.34375 14.484375 -7.4375 C 13.898438 -6.539062 13.0625 -5.882812 11.96875 -5.46875 L 15.640625 0 Z M 4.90625 -7.40625 L 8.78125 -7.40625 C 11.425781 -7.40625 12.75 -8.5 12.75 -10.6875 C 12.75 -12.800781 11.425781 -13.859375 8.78125 -13.859375 L 4.90625 -13.859375 Z M 4.90625 -7.40625 "/></g></g></g><g fill="#e5b344" fill-opacity="1"><g transform="translate(749.644357, 750.902435)"><g><path d="M 9.4375 0 L 6.578125 0 L 0.0625 -16.34375 L 3.03125 -16.34375 L 8.078125 -3.0625 L 13.171875 -16.34375 L 16.03125 -16.34375 Z M 9.4375 0 "/></g></g></g><g fill="#e5b344" fill-opacity="1"><g transform="translate(772.360448, 750.902435)"><g><path d="M 4.90625 0 L 2.140625 0 L 2.140625 -16.34375 L 4.90625 -16.34375 Z M 4.90625 0 "/></g></g></g><g fill="#e5b344" fill-opacity="1"><g transform="translate(786.029756, 750.902435)"><g><path d="M 9.390625 -16.40625 C 10.535156 -16.40625 11.65625 -16.179688 12.75 -15.734375 C 13.851562 -15.296875 14.800781 -14.679688 15.59375 -13.890625 L 13.984375 -11.875 C 13.390625 -12.519531 12.6875 -13.023438 11.875 -13.390625 C 11.070312 -13.765625 10.257812 -13.953125 9.4375 -13.953125 C 7.800781 -13.953125 6.414062 -13.394531 5.28125 -12.28125 C 4.15625 -11.175781 3.59375 -9.820312 3.59375 -8.21875 C 3.59375 -6.601562 4.15625 -5.238281 5.28125 -4.125 C 6.414062 -3.007812 7.800781 -2.453125 9.4375 -2.453125 C 11.125 -2.453125 12.640625 -3.097656 13.984375 -4.390625 L 15.609375 -2.5625 C 14.773438 -1.738281 13.796875 -1.085938 12.671875 -0.609375 C 11.554688 -0.128906 10.429688 0.109375 9.296875 0.109375 C 6.898438 0.109375 4.882812 -0.6875 3.25 -2.28125 C 1.613281 -3.875 0.796875 -5.84375 0.796875 -8.1875 C 0.796875 -10.507812 1.625 -12.457031 3.28125 -14.03125 C 4.9375 -15.613281 6.972656 -16.40625 9.390625 -16.40625 Z M 9.390625 -16.40625 "/></g></g></g><g fill="#e5b344" fill-opacity="1"><g transform="translate(808.909067, 750.902435)"><g><path d="M 13.8125 -13.859375 L 4.90625 -13.859375 L 4.90625 -9.453125 L 12.890625 -9.453125 L 12.890625 -6.984375 L 4.90625 -6.984375 L 4.90625 -2.46875 L 14.09375 -2.46875 L 14.09375 0 L 2.140625 0 L 2.140625 -16.34375 L 13.8125 -16.34375 Z M 13.8125 -13.859375 "/></g></g></g><g fill="#e5b344" fill-opacity="1"><g transform="translate(830.832406, 750.902435)"><g><path d="M 7.515625 -16.453125 C 9.628906 -16.453125 11.535156 -15.894531 13.234375 -14.78125 L 12.09375 -12.34375 C 10.425781 -13.351562 8.832031 -13.859375 7.3125 -13.859375 C 6.476562 -13.859375 5.820312 -13.710938 5.34375 -13.421875 C 4.875 -13.128906 4.640625 -12.707031 4.640625 -12.15625 C 4.640625 -11.613281 4.859375 -11.148438 5.296875 -10.765625 C 5.734375 -10.390625 6.273438 -10.113281 6.921875 -9.9375 C 7.578125 -9.757812 8.285156 -9.53125 9.046875 -9.25 C 9.816406 -8.976562 10.523438 -8.691406 11.171875 -8.390625 C 11.828125 -8.085938 12.367188 -7.613281 12.796875 -6.96875 C 13.234375 -6.320312 13.453125 -5.539062 13.453125 -4.625 C 13.453125 -3.1875 12.878906 -2.039062 11.734375 -1.1875 C 10.585938 -0.332031 9.101562 0.09375 7.28125 0.09375 C 6.039062 0.09375 4.835938 -0.140625 3.671875 -0.609375 C 2.503906 -1.078125 1.484375 -1.707031 0.609375 -2.5 L 1.796875 -4.875 C 2.617188 -4.113281 3.523438 -3.523438 4.515625 -3.109375 C 5.503906 -2.703125 6.441406 -2.5 7.328125 -2.5 C 8.296875 -2.5 9.046875 -2.671875 9.578125 -3.015625 C 10.117188 -3.367188 10.390625 -3.859375 10.390625 -4.484375 C 10.390625 -5.046875 10.171875 -5.515625 9.734375 -5.890625 C 9.296875 -6.273438 8.75 -6.554688 8.09375 -6.734375 C 7.445312 -6.910156 6.738281 -7.128906 5.96875 -7.390625 C 5.207031 -7.648438 4.5 -7.921875 3.84375 -8.203125 C 3.195312 -8.492188 2.65625 -8.957031 2.21875 -9.59375 C 1.78125 -10.226562 1.5625 -11 1.5625 -11.90625 C 1.5625 -13.289062 2.101562 -14.394531 3.1875 -15.21875 C 4.28125 -16.039062 5.722656 -16.453125 7.515625 -16.453125 Z M 7.515625 -16.453125 "/></g></g></g><g fill="#8c52ff" fill-opacity="1"><g transform="translate(407.768324, 134.804116)"><g><path d="M 22.148438 -23.316406 L 22.148438 -36.957031 C 27.746094 -36.957031 40.105469 -36.605469 48.148438 -35.789062 L 48.496094 -36.140625 C 48.265625 -37.1875 48.148438 -38.820312 48.148438 -39.871094 C 48.148438 -40.917969 48.265625 -42.550781 48.496094 -43.601562 L 48.148438 -43.949219 C 41.269531 -43.367188 35.90625 -42.785156 22.148438 -42.785156 L 22.148438 -51.878906 C 22.148438 -53.859375 22.265625 -65.867188 23.082031 -68.664062 C 38.703125 -68.664062 54.792969 -67.265625 54.792969 -67.265625 L 55.027344 -67.734375 C 54.910156 -68.664062 54.792969 -69.714844 54.792969 -70.765625 C 54.792969 -71.695312 54.910156 -73.5625 55.027344 -75.195312 L 54.792969 -75.542969 C 52.925781 -75.3125 50.246094 -75.195312 47.796875 -75.195312 L 17.136719 -75.195312 C 13.171875 -75.195312 11.191406 -75.542969 11.191406 -75.542969 L 10.957031 -75.195312 C 11.890625 -68.550781 12.125 -60.621094 12.125 -51.878906 L 12.125 -23.316406 C 12.125 -14.574219 11.890625 -6.296875 10.957031 0 L 11.074219 0.351562 C 11.074219 0.351562 13.058594 0 17.136719 0 L 48.964844 0 C 51.410156 0 54.09375 0.117188 55.957031 0.351562 L 56.191406 0 C 56.074219 -1.632812 55.957031 -2.449219 55.957031 -3.613281 C 55.957031 -4.78125 56.074219 -6.527344 56.191406 -7.460938 L 55.957031 -7.925781 C 55.957031 -7.925781 38.703125 -6.527344 23.082031 -6.527344 C 22.265625 -9.328125 22.148438 -21.335938 22.148438 -23.316406 Z M 22.148438 -23.316406 "/></g></g></g><g fill="#8c52ff" fill-opacity="1"><g transform="translate(473.984946, 134.804116)"><g><path d="M 22.148438 -33.34375 C 26.230469 -33.34375 29.726562 -33.457031 32.875 -33.691406 C 36.140625 -29.84375 38.703125 -25.296875 41.734375 -20.519531 C 45.933594 -13.757812 51.527344 -3.613281 52.8125 0.351562 C 55.027344 0 57.589844 0 59.804688 0 C 62.136719 0 64.46875 0 66.800781 0.351562 L 67.035156 0 C 61.203125 -6.527344 49.429688 -24.949219 42.085938 -34.855469 C 45.234375 -35.441406 47.566406 -36.140625 49.195312 -37.074219 C 55.492188 -40.21875 60.855469 -46.28125 60.855469 -55.84375 C 60.855469 -61.671875 58.871094 -66.449219 54.675781 -70.414062 C 49.082031 -75.660156 40.21875 -76.011719 32.875 -76.011719 C 29.960938 -76.011719 20.632812 -75.195312 17.136719 -75.195312 C 15.738281 -75.195312 12.589844 -75.3125 11.191406 -75.542969 L 10.957031 -75.195312 C 11.890625 -68.550781 12.125 -60.621094 12.125 -51.878906 L 12.125 -23.316406 C 12.125 -14.574219 11.890625 -6.296875 10.957031 0 L 11.191406 0.351562 C 12.589844 0.117188 15.738281 0 17.136719 0 C 18.535156 0 21.683594 0.117188 23.082031 0.351562 L 23.316406 0 C 22.382812 -6.644531 22.148438 -14.574219 22.148438 -23.316406 Z M 32.992188 -70.996094 C 40.105469 -70.996094 49.664062 -68.316406 49.664062 -55.726562 C 49.664062 -41.503906 40.21875 -38.003906 28.910156 -38.003906 L 22.148438 -38.003906 L 22.148438 -65.867188 C 22.148438 -70.414062 22.5 -70.996094 32.992188 -70.996094 Z M 32.992188 -70.996094 "/></g></g></g><g fill="#8c52ff" fill-opacity="1"><g transform="translate(547.429404, 134.804116)"><g><path d="M 22.148438 -33.34375 C 26.230469 -33.34375 29.726562 -33.457031 32.875 -33.691406 C 36.140625 -29.84375 38.703125 -25.296875 41.734375 -20.519531 C 45.933594 -13.757812 51.527344 -3.613281 52.8125 0.351562 C 55.027344 0 57.589844 0 59.804688 0 C 62.136719 0 64.46875 0 66.800781 0.351562 L 67.035156 0 C 61.203125 -6.527344 49.429688 -24.949219 42.085938 -34.855469 C 45.234375 -35.441406 47.566406 -36.140625 49.195312 -37.074219 C 55.492188 -40.21875 60.855469 -46.28125 60.855469 -55.84375 C 60.855469 -61.671875 58.871094 -66.449219 54.675781 -70.414062 C 49.082031 -75.660156 40.21875 -76.011719 32.875 -76.011719 C 29.960938 -76.011719 20.632812 -75.195312 17.136719 -75.195312 C 15.738281 -75.195312 12.589844 -75.3125 11.191406 -75.542969 L 10.957031 -75.195312 C 11.890625 -68.550781 12.125 -60.621094 12.125 -51.878906 L 12.125 -23.316406 C 12.125 -14.574219 11.890625 -6.296875 10.957031 0 L 11.191406 0.351562 C 12.589844 0.117188 15.738281 0 17.136719 0 C 18.535156 0 21.683594 0.117188 23.082031 0.351562 L 23.316406 0 C 22.382812 -6.644531 22.148438 -14.574219 22.148438 -23.316406 Z M 32.992188 -70.996094 C 40.105469 -70.996094 49.664062 -68.316406 49.664062 -55.726562 C 49.664062 -41.503906 40.21875 -38.003906 28.910156 -38.003906 L 22.148438 -38.003906 L 22.148438 -65.867188 C 22.148438 -70.414062 22.5 -70.996094 32.992188 -70.996094 Z M 32.992188 -70.996094 "/></g></g></g><g fill="#8c52ff" fill-opacity="1"><g transform="translate(620.873873, 134.804116)"><g><path d="M 41.386719 -71.582031 C 57.824219 -71.582031 68.316406 -60.386719 68.316406 -36.140625 C 68.316406 -15.273438 58.640625 -3.964844 45.351562 -3.964844 C 31.359375 -3.964844 18.070312 -15.738281 18.070312 -38.121094 C 18.070312 -62.601562 30.195312 -71.582031 41.386719 -71.582031 Z M 80.324219 -38.355469 C 80.324219 -61.4375 63.886719 -76.710938 42.902344 -76.710938 C 22.035156 -76.710938 6.0625 -58.988281 6.0625 -36.140625 C 6.0625 -13.171875 22.964844 1.164062 43.019531 1.164062 C 65.285156 1.164062 80.324219 -15.039062 80.324219 -38.355469 Z M 80.324219 -38.355469 "/></g></g></g><g fill="#8c52ff" fill-opacity="1"><g transform="translate(710.755857, 134.804116)"><g><path d="M 22.148438 -33.34375 C 26.230469 -33.34375 29.726562 -33.457031 32.875 -33.691406 C 36.140625 -29.84375 38.703125 -25.296875 41.734375 -20.519531 C 45.933594 -13.757812 51.527344 -3.613281 52.8125 0.351562 C 55.027344 0 57.589844 0 59.804688 0 C 62.136719 0 64.46875 0 66.800781 0.351562 L 67.035156 0 C 61.203125 -6.527344 49.429688 -24.949219 42.085938 -34.855469 C 45.234375 -35.441406 47.566406 -36.140625 49.195312 -37.074219 C 55.492188 -40.21875 60.855469 -46.28125 60.855469 -55.84375 C 60.855469 -61.671875 58.871094 -66.449219 54.675781 -70.414062 C 49.082031 -75.660156 40.21875 -76.011719 32.875 -76.011719 C 29.960938 -76.011719 20.632812 -75.195312 17.136719 -75.195312 C 15.738281 -75.195312 12.589844 -75.3125 11.191406 -75.542969 L 10.957031 -75.195312 C 11.890625 -68.550781 12.125 -60.621094 12.125 -51.878906 L 12.125 -23.316406 C 12.125 -14.574219 11.890625 -6.296875 10.957031 0 L 11.191406 0.351562 C 12.589844 0.117188 15.738281 0 17.136719 0 C 18.535156 0 21.683594 0.117188 23.082031 0.351562 L 23.316406 0 C 22.382812 -6.644531 22.148438 -14.574219 22.148438 -23.316406 Z M 32.992188 -70.996094 C 40.105469 -70.996094 49.664062 -68.316406 49.664062 -55.726562 C 49.664062 -41.503906 40.21875 -38.003906 28.910156 -38.003906 L 22.148438 -38.003906 L 22.148438 -65.867188 C 22.148438 -70.414062 22.5 -70.996094 32.992188 -70.996094 Z M 32.992188 -70.996094 "/></g></g></g><g fill="#8c52ff" fill-opacity="1"><g transform="translate(784.200326, 134.804116)"><g/></g></g><g fill="#8c52ff" fill-opacity="1"><g transform="translate(816.842445, 134.804116)"><g><path d="M 33.34375 -17.253906 C 33.34375 -8.277344 33.109375 -5.945312 32.410156 0 L 32.527344 0.351562 C 32.527344 0.351562 36.140625 0 38.003906 0 C 39.871094 0 41.851562 0.351562 42.902344 0.351562 C 43.019531 0.351562 43.132812 0.117188 43.132812 0 C 42.667969 -6.761719 42.433594 -10.492188 42.433594 -17.253906 L 48.265625 -17.253906 C 49.894531 -17.253906 51.644531 -19.933594 51.644531 -21.21875 C 51.644531 -22.265625 51.0625 -23.082031 49.894531 -23.082031 L 42.433594 -23.082031 L 42.433594 -52.695312 C 42.433594 -56.542969 42.550781 -64.585938 43.132812 -69.949219 C 43.132812 -70.179688 43.019531 -70.414062 42.902344 -70.414062 C 41.851562 -70.414062 40.105469 -69.949219 38.355469 -69.949219 C 36.488281 -69.949219 34.390625 -70.414062 34.390625 -70.414062 C 34.390625 -70.414062 33.925781 -70.066406 33.925781 -69.949219 C 26.8125 -60.15625 10.027344 -34.507812 3.964844 -24.132812 C 2.796875 -22.035156 2.449219 -20.75 2.449219 -19.585938 C 2.449219 -17.835938 5.128906 -17.253906 9.328125 -17.253906 Z M 33.34375 -59.6875 L 33.34375 -23.082031 L 9.675781 -23.082031 Z M 33.34375 -59.6875 "/></g></g></g><g fill="#8c52ff" fill-opacity="1"><g transform="translate(874.548863, 134.804116)"><g><path d="M 27.164062 -66.566406 C 29.144531 -66.566406 31.011719 -65.867188 32.292969 -64.703125 C 35.90625 -61.671875 39.054688 -52.578125 39.054688 -36.957031 C 39.054688 -26.230469 38.703125 -20.167969 37.074219 -14.222656 C 34.507812 -4.546875 28.796875 -3.378906 26.695312 -3.378906 C 15.855469 -3.378906 14.574219 -23.316406 14.574219 -33.457031 C 14.574219 -62.253906 21.800781 -66.566406 27.164062 -66.566406 Z M 26.582031 1.164062 C 35.558594 1.164062 49.082031 -8.742188 49.082031 -36.023438 C 49.082031 -54.210938 42.433594 -63.1875 38.238281 -67.035156 C 35.089844 -69.949219 31.359375 -71.113281 27.164062 -71.113281 C 15.503906 -71.113281 4.546875 -56.65625 4.546875 -33.691406 C 4.546875 -14.804688 12.125 1.164062 26.582031 1.164062 Z M 26.582031 1.164062 "/></g></g></g><g fill="#8c52ff" fill-opacity="1"><g transform="translate(932.255282, 134.804116)"><g><path d="M 33.34375 -17.253906 C 33.34375 -8.277344 33.109375 -5.945312 32.410156 0 L 32.527344 0.351562 C 32.527344 0.351562 36.140625 0 38.003906 0 C 39.871094 0 41.851562 0.351562 42.902344 0.351562 C 43.019531 0.351562 43.132812 0.117188 43.132812 0 C 42.667969 -6.761719 42.433594 -10.492188 42.433594 -17.253906 L 48.265625 -17.253906 C 49.894531 -17.253906 51.644531 -19.933594 51.644531 -21.21875 C 51.644531 -22.265625 51.0625 -23.082031 49.894531 -23.082031 L 42.433594 -23.082031 L 42.433594 -52.695312 C 42.433594 -56.542969 42.550781 -64.585938 43.132812 -69.949219 C 43.132812 -70.179688 43.019531 -70.414062 42.902344 -70.414062 C 41.851562 -70.414062 40.105469 -69.949219 38.355469 -69.949219 C 36.488281 -69.949219 34.390625 -70.414062 34.390625 -70.414062 C 34.390625 -70.414062 33.925781 -70.066406 33.925781 -69.949219 C 26.8125 -60.15625 10.027344 -34.507812 3.964844 -24.132812 C 2.796875 -22.035156 2.449219 -20.75 2.449219 -19.585938 C 2.449219 -17.835938 5.128906 -17.253906 9.328125 -17.253906 Z M 33.34375 -59.6875 L 33.34375 -23.082031 L 9.675781 -23.082031 Z M 33.34375 -59.6875 "/></g></g></g><g fill="#8c52ff" fill-opacity="1"><g transform="translate(989.9617, 134.804116)"><g><path d="M 7.113281 -41.503906 C 8.042969 -37.539062 9.675781 -36.023438 13.40625 -35.207031 L 13.871094 -35.207031 C 17.136719 -36.023438 18.886719 -37.65625 20.167969 -41.503906 L 20.167969 -41.96875 C 19.003906 -45.234375 17.253906 -46.980469 13.871094 -48.265625 L 13.40625 -48.265625 C 9.792969 -46.75 8.160156 -45 7.113281 -41.96875 Z M 7.113281 -10.84375 C 8.042969 -6.878906 9.675781 -5.363281 13.40625 -4.546875 L 13.871094 -4.546875 C 17.136719 -5.363281 18.886719 -6.996094 20.167969 -10.84375 L 20.167969 -11.308594 C 19.003906 -14.574219 17.253906 -16.320312 13.871094 -17.605469 L 13.40625 -17.605469 C 9.792969 -16.089844 8.160156 -14.339844 7.113281 -11.308594 Z M 7.113281 -10.84375 "/></g></g></g><g fill="#8c52ff" fill-opacity="1"><g transform="translate(1019.100321, 134.804116)"><g/></g></g><g fill="#8c52ff" fill-opacity="1"><g transform="translate(165.026145, 271.304109)"><g><path d="M 20.789062 -40.757812 L 20.789062 -18.316406 C 20.789062 -11.449219 20.609375 -4.945312 19.875 0 L 20.058594 0.273438 C 21.15625 0.0898438 23.628906 0 24.730469 0 C 25.828125 0 28.300781 0.0898438 29.402344 0.273438 L 29.582031 0 C 28.851562 -5.21875 28.667969 -11.449219 28.667969 -18.316406 L 28.667969 -40.757812 C 28.667969 -42.316406 28.757812 -51.75 29.402344 -53.945312 C 41.671875 -53.945312 47.902344 -52.664062 47.902344 -52.664062 L 48.085938 -53.03125 C 47.902344 -54.40625 47.902344 -56.511719 48.085938 -59.074219 L 47.902344 -59.351562 C 46.4375 -59.167969 44.328125 -59.074219 42.40625 -59.074219 L 7.050781 -59.074219 C 5.128906 -59.074219 3.023438 -59.167969 1.558594 -59.351562 L 1.375 -59.074219 C 1.558594 -56.511719 1.558594 -54.40625 1.375 -53.03125 L 1.558594 -52.664062 C 1.558594 -52.664062 7.785156 -53.945312 20.058594 -53.945312 C 20.699219 -51.75 20.789062 -42.316406 20.789062 -40.757812 Z M 20.789062 -40.757812 "/></g></g></g><g fill="#8c52ff" fill-opacity="1"><g transform="translate(217.228247, 271.304109)"><g><path d="M 49.09375 -40.757812 L 49.09375 -33.429688 L 17.402344 -33.429688 L 17.402344 -40.757812 C 17.402344 -47.625 17.585938 -54.222656 18.316406 -59.074219 L 18.226562 -59.351562 C 17.128906 -59.167969 14.5625 -59.074219 13.464844 -59.074219 C 12.363281 -59.074219 9.890625 -59.167969 8.792969 -59.351562 L 8.609375 -59.074219 C 9.34375 -53.855469 9.523438 -47.625 9.523438 -40.757812 L 9.523438 -18.316406 C 9.523438 -11.449219 9.34375 -4.945312 8.609375 0 L 8.699219 0.273438 C 9.800781 0.0898438 12.363281 0 13.464844 0 C 14.5625 0 17.035156 0.0898438 18.136719 0.273438 L 18.316406 0 C 17.585938 -5.21875 17.402344 -11.449219 17.402344 -18.316406 L 17.402344 -29.402344 L 49.09375 -29.402344 L 49.09375 -18.316406 C 49.09375 -11.449219 48.910156 -4.945312 48.175781 0 L 48.269531 0.273438 C 49.367188 0.0898438 51.929688 0 53.03125 0 C 54.128906 0 56.601562 0.0898438 57.703125 0.273438 L 57.886719 0 C 57.152344 -5.21875 56.96875 -11.449219 56.96875 -18.316406 L 56.96875 -40.757812 C 56.96875 -47.625 57.152344 -54.222656 57.886719 -59.074219 L 57.792969 -59.351562 C 56.695312 -59.167969 54.128906 -59.074219 53.03125 -59.074219 C 51.929688 -59.074219 49.457031 -59.167969 48.359375 -59.351562 L 48.175781 -59.074219 C 48.910156 -53.855469 49.09375 -47.625 49.09375 -40.757812 Z M 49.09375 -40.757812 "/></g></g></g><g fill="#8c52ff" fill-opacity="1"><g transform="translate(286.464604, 271.304109)"><g><path d="M 9.523438 -40.757812 L 9.523438 -18.316406 C 9.523438 -11.449219 9.34375 -4.945312 8.609375 0 L 8.792969 0.273438 C 9.890625 0.0898438 12.363281 0 13.464844 0 C 14.5625 0 17.035156 0.0898438 18.136719 0.273438 L 18.316406 0 C 17.585938 -5.21875 17.402344 -11.449219 17.402344 -18.316406 L 17.402344 -40.757812 C 17.402344 -47.625 17.585938 -54.222656 18.316406 -59.074219 L 18.136719 -59.351562 C 17.035156 -59.167969 14.5625 -59.074219 13.464844 -59.074219 C 12.363281 -59.074219 9.890625 -59.167969 8.792969 -59.351562 L 8.609375 -59.074219 C 9.34375 -53.855469 9.523438 -47.625 9.523438 -40.757812 Z M 9.523438 -40.757812 "/></g></g></g><g fill="#8c52ff" fill-opacity="1"><g transform="translate(316.137519, 271.304109)"><g><path d="M 22.164062 -3.113281 C 17.035156 -3.113281 10.441406 -7.601562 7.601562 -13.003906 L 6.6875 -12.914062 C 6.320312 -9.617188 5.3125 -6.226562 4.578125 -3.480469 L 4.761719 -3.207031 C 4.761719 -3.207031 10.714844 0.914062 21.433594 0.914062 C 32.699219 0.914062 41.398438 -5.953125 41.398438 -16.578125 C 41.398438 -27.203125 32.332031 -32.054688 25.003906 -34.894531 C 20.332031 -36.636719 13.832031 -39.292969 13.832031 -46.894531 C 13.832031 -50.191406 15.660156 -53.855469 18.042969 -55.136719 C 19.601562 -55.960938 21.523438 -56.234375 23.628906 -56.234375 C 28.667969 -56.234375 33.613281 -52.296875 36.085938 -46.621094 L 37.003906 -46.710938 C 37.367188 -50.007812 38.285156 -53.121094 39.109375 -55.871094 L 38.925781 -56.144531 C 38.925781 -56.144531 35.078125 -60.265625 24.363281 -60.265625 C 21.890625 -60.265625 19.140625 -59.808594 16.484375 -58.710938 C 11.082031 -56.417969 6.410156 -51.105469 6.410156 -44.421875 C 6.410156 -34.804688 14.5625 -30.316406 22.164062 -27.109375 C 28.117188 -24.636719 32.878906 -21.617188 32.878906 -13.832031 C 32.878906 -6.960938 27.570312 -3.113281 22.164062 -3.113281 Z M 22.164062 -3.113281 "/></g></g></g><g fill="#8c52ff" fill-opacity="1"><g transform="translate(365.225826, 271.304109)"><g/></g></g><g fill="#8c52ff" fill-opacity="1"><g transform="translate(390.869128, 271.304109)"><g><path d="M 17.402344 -51.75 C 17.402344 -54.40625 19.050781 -55.777344 25.644531 -55.777344 C 31.964844 -55.777344 38.652344 -54.039062 38.652344 -43.140625 C 38.652344 -32.605469 33.523438 -29.21875 24.636719 -29.21875 C 22.347656 -29.21875 18.59375 -29.492188 17.402344 -30.132812 Z M 9.523438 -40.757812 L 9.523438 -18.316406 C 9.523438 -11.449219 9.34375 -4.945312 8.609375 0 L 8.792969 0.273438 C 9.890625 0.0898438 12.363281 0 13.464844 0 C 14.5625 0 17.035156 0.0898438 18.136719 0.273438 L 18.316406 0 C 17.585938 -5.21875 17.402344 -11.449219 17.402344 -18.316406 L 17.402344 -26.195312 C 19.417969 -25.554688 21.890625 -25.277344 25.09375 -25.277344 C 41.765625 -25.277344 47.535156 -35.8125 47.535156 -43.597656 C 47.535156 -50.375 43.230469 -59.714844 26.285156 -59.714844 C 23.90625 -59.714844 16.210938 -59.074219 13.464844 -59.074219 C 12.363281 -59.074219 9.890625 -59.167969 8.792969 -59.351562 L 8.609375 -59.074219 C 9.34375 -53.855469 9.523438 -47.625 9.523438 -40.757812 Z M 9.523438 -40.757812 "/></g></g></g><g fill="#8c52ff" fill-opacity="1"><g transform="translate(444.811287, 271.304109)"><g><path d="M 37.277344 -25.1875 C 34.253906 -25.09375 30.40625 -25.003906 27.75 -25.003906 C 25.09375 -25.003906 20.148438 -25.09375 18.136719 -25.1875 L 27.84375 -47.71875 L 28.027344 -47.71875 C 31.78125 -39.109375 34.804688 -31.597656 37.277344 -25.1875 Z M 16.394531 -20.882812 C 18.683594 -21.066406 25.003906 -21.15625 28.210938 -21.15625 C 31.691406 -21.15625 36.726562 -21.066406 38.925781 -20.882812 C 43.414062 -8.882812 45.429688 -1.738281 46.070312 0.273438 C 47.625 0 49.09375 0 50.648438 0 C 52.207031 0 54.585938 0 56.144531 0.273438 C 51.566406 -8.976562 39.476562 -40.207031 31.050781 -60.265625 L 28.484375 -60.265625 C 19.691406 -39.933594 10.714844 -19.964844 1.464844 0.273438 C 2.566406 0 3.664062 0 4.671875 0 C 5.679688 0 7.695312 0 8.792969 0.273438 C 10.257812 -5.3125 13.097656 -12.824219 16.394531 -20.882812 Z M 16.394531 -20.882812 "/></g></g></g><g fill="#8c52ff" fill-opacity="1"><g transform="translate(505.164197, 271.304109)"><g><path d="M 50.007812 -10.714844 L 50.007812 -6.59375 C 46.894531 -3.664062 41.492188 -3.113281 36.542969 -3.113281 C 20.242188 -3.113281 14.195312 -17.859375 14.195312 -29.949219 C 14.195312 -45.976562 23.082031 -56.234375 35.445312 -56.234375 C 43.6875 -56.234375 50.742188 -51.65625 54.863281 -44.695312 L 55.960938 -44.789062 C 56.234375 -49.457031 56.785156 -51.929688 57.792969 -55.410156 L 57.609375 -55.6875 C 57.609375 -55.6875 47.902344 -60.265625 36.726562 -60.265625 C 20.972656 -60.265625 4.761719 -49.183594 4.761719 -29.035156 C 4.761719 -13.1875 16.027344 0.914062 34.4375 0.914062 C 45.0625 0.914062 52.574219 -2.105469 58.800781 -7.328125 L 58.800781 -7.601562 C 57.976562 -8.519531 57.886719 -10.992188 57.886719 -12 L 57.886719 -12.546875 C 57.886719 -19.417969 58.066406 -23.265625 58.800781 -28.117188 L 58.710938 -28.394531 C 58.710938 -28.394531 57.152344 -28.117188 53.945312 -28.117188 C 50.832031 -28.117188 49.277344 -28.394531 49.277344 -28.394531 L 49.09375 -28.117188 C 49.824219 -22.898438 50.007812 -17.585938 50.007812 -10.714844 Z M 50.007812 -10.714844 "/></g></g></g><g fill="#8c52ff" fill-opacity="1"><g transform="translate(573.576311, 271.304109)"><g><path d="M 17.402344 -18.316406 L 17.402344 -29.035156 C 21.796875 -29.035156 31.507812 -28.757812 37.828125 -28.117188 L 38.101562 -28.394531 C 37.917969 -29.21875 37.828125 -30.5 37.828125 -31.324219 C 37.828125 -32.148438 37.917969 -33.429688 38.101562 -34.253906 L 37.828125 -34.53125 C 32.421875 -34.070312 28.210938 -33.613281 17.402344 -33.613281 L 17.402344 -40.757812 C 17.402344 -42.316406 17.492188 -51.75 18.136719 -53.945312 C 30.40625 -53.945312 43.046875 -52.847656 43.046875 -52.847656 L 43.230469 -53.214844 C 43.140625 -53.945312 43.046875 -54.769531 43.046875 -55.59375 C 43.046875 -56.328125 43.140625 -57.792969 43.230469 -59.074219 L 43.046875 -59.351562 C 41.582031 -59.167969 39.476562 -59.074219 37.550781 -59.074219 L 13.464844 -59.074219 C 10.351562 -59.074219 8.792969 -59.351562 8.792969 -59.351562 L 8.609375 -59.074219 C 9.34375 -53.855469 9.523438 -47.625 9.523438 -40.757812 L 9.523438 -18.316406 C 9.523438 -11.449219 9.34375 -4.945312 8.609375 0 L 8.699219 0.273438 C 8.699219 0.273438 10.257812 0 13.464844 0 L 38.46875 0 C 40.390625 0 42.496094 0.0898438 43.964844 0.273438 L 44.144531 0 C 44.054688 -1.28125 43.964844 -1.921875 43.964844 -2.839844 C 43.964844 -3.753906 44.054688 -5.128906 44.144531 -5.863281 L 43.964844 -6.226562 C 43.964844 -6.226562 30.40625 -5.128906 18.136719 -5.128906 C 17.492188 -7.328125 17.402344 -16.761719 17.402344 -18.316406 Z M 17.402344 -18.316406 "/></g></g></g><g fill="#8c52ff" fill-opacity="1"><g transform="translate(625.595245, 271.304109)"><g/></g></g><g fill="#5ce1e6" fill-opacity="1"><g transform="translate(651.237062, 271.304109)"><g><path d="M 9.523438 -40.757812 L 9.523438 -18.316406 C 9.523438 -11.449219 9.34375 -4.945312 8.609375 0 L 8.792969 0.273438 C 9.890625 0.0898438 12.363281 0 13.464844 0 C 14.5625 0 17.035156 0.0898438 18.136719 0.273438 L 18.316406 0 C 17.585938 -5.21875 17.402344 -11.449219 17.402344 -18.316406 L 17.402344 -40.757812 C 17.402344 -47.625 17.585938 -54.222656 18.316406 -59.074219 L 18.136719 -59.351562 C 17.035156 -59.167969 14.5625 -59.074219 13.464844 -59.074219 C 12.363281 -59.074219 9.890625 -59.167969 8.792969 -59.351562 L 8.609375 -59.074219 C 9.34375 -53.855469 9.523438 -47.625 9.523438 -40.757812 Z M 9.523438 -40.757812 "/></g></g></g><g fill="#5ce1e6" fill-opacity="1"><g transform="translate(680.909971, 271.304109)"><g><path d="M 22.164062 -3.113281 C 17.035156 -3.113281 10.441406 -7.601562 7.601562 -13.003906 L 6.6875 -12.914062 C 6.320312 -9.617188 5.3125 -6.226562 4.578125 -3.480469 L 4.761719 -3.207031 C 4.761719 -3.207031 10.714844 0.914062 21.433594 0.914062 C 32.699219 0.914062 41.398438 -5.953125 41.398438 -16.578125 C 41.398438 -27.203125 32.332031 -32.054688 25.003906 -34.894531 C 20.332031 -36.636719 13.832031 -39.292969 13.832031 -46.894531 C 13.832031 -50.191406 15.660156 -53.855469 18.042969 -55.136719 C 19.601562 -55.960938 21.523438 -56.234375 23.628906 -56.234375 C 28.667969 -56.234375 33.613281 -52.296875 36.085938 -46.621094 L 37.003906 -46.710938 C 37.367188 -50.007812 38.285156 -53.121094 39.109375 -55.871094 L 38.925781 -56.144531 C 38.925781 -56.144531 35.078125 -60.265625 24.363281 -60.265625 C 21.890625 -60.265625 19.140625 -59.808594 16.484375 -58.710938 C 11.082031 -56.417969 6.410156 -51.105469 6.410156 -44.421875 C 6.410156 -34.804688 14.5625 -30.316406 22.164062 -27.109375 C 28.117188 -24.636719 32.878906 -21.617188 32.878906 -13.832031 C 32.878906 -6.960938 27.570312 -3.113281 22.164062 -3.113281 Z M 22.164062 -3.113281 "/></g></g></g><g fill="#8c52ff" fill-opacity="1"><g transform="translate(729.987058, 271.304109)"><g/></g></g><g fill="#7ed957" fill-opacity="1"><g transform="translate(755.627681, 271.304109)"><g><path d="M 9.890625 -59.074219 C 10.714844 -41.671875 10.441406 -14.5625 8.976562 0 L 9.160156 0.273438 C 10.257812 0.0898438 11.265625 0 12.363281 0 C 13.464844 0 14.472656 0.0898438 15.570312 0.273438 L 15.753906 0 C 15.019531 -5.21875 14.835938 -11.449219 14.835938 -18.316406 L 14.835938 -40.207031 C 14.835938 -45.796875 14.929688 -46.070312 18.410156 -41.671875 L 50.375 -1.28125 C 51.382812 0.0898438 52.847656 0.914062 54.3125 0.914062 C 55.59375 0.914062 55.960938 -0.183594 56.054688 -1.921875 C 56.511719 -22.804688 56.417969 -38.742188 57.886719 -59.074219 L 57.703125 -59.351562 C 56.601562 -59.167969 55.59375 -59.074219 54.496094 -59.074219 C 53.398438 -59.074219 52.390625 -59.167969 51.289062 -59.351562 L 51.105469 -59.074219 C 51.839844 -53.855469 52.023438 -47.625 52.023438 -40.757812 L 52.023438 -16.304688 C 51.839844 -11.265625 50.558594 -13.371094 46.621094 -18.59375 L 15.203125 -59.257812 C 15.203125 -59.257812 14.289062 -59.074219 13.921875 -59.074219 C 10.808594 -59.074219 10.074219 -59.351562 10.074219 -59.351562 Z M 9.890625 -59.074219 "/></g></g></g><g fill="#7ed957" fill-opacity="1"><g transform="translate(824.131388, 271.304109)"><g><path d="M 32.515625 -56.234375 C 45.429688 -56.234375 53.671875 -47.445312 53.671875 -28.394531 C 53.671875 -12 46.070312 -3.113281 35.628906 -3.113281 C 24.636719 -3.113281 14.195312 -12.363281 14.195312 -29.949219 C 14.195312 -49.183594 23.722656 -56.234375 32.515625 -56.234375 Z M 63.105469 -30.132812 C 63.105469 -48.269531 50.191406 -60.265625 33.707031 -60.265625 C 17.308594 -60.265625 4.761719 -46.34375 4.761719 -28.394531 C 4.761719 -10.351562 18.042969 0.914062 33.796875 0.914062 C 51.289062 0.914062 63.105469 -11.816406 63.105469 -30.132812 Z M 63.105469 -30.132812 "/></g></g></g><g fill="#7ed957" fill-opacity="1"><g transform="translate(894.741482, 271.304109)"><g><path d="M 20.789062 -40.757812 L 20.789062 -18.316406 C 20.789062 -11.449219 20.609375 -4.945312 19.875 0 L 20.058594 0.273438 C 21.15625 0.0898438 23.628906 0 24.730469 0 C 25.828125 0 28.300781 0.0898438 29.402344 0.273438 L 29.582031 0 C 28.851562 -5.21875 28.667969 -11.449219 28.667969 -18.316406 L 28.667969 -40.757812 C 28.667969 -42.316406 28.757812 -51.75 29.402344 -53.945312 C 41.671875 -53.945312 47.902344 -52.664062 47.902344 -52.664062 L 48.085938 -53.03125 C 47.902344 -54.40625 47.902344 -56.511719 48.085938 -59.074219 L 47.902344 -59.351562 C 46.4375 -59.167969 44.328125 -59.074219 42.40625 -59.074219 L 7.050781 -59.074219 C 5.128906 -59.074219 3.023438 -59.167969 1.558594 -59.351562 L 1.375 -59.074219 C 1.558594 -56.511719 1.558594 -54.40625 1.375 -53.03125 L 1.558594 -52.664062 C 1.558594 -52.664062 7.785156 -53.945312 20.058594 -53.945312 C 20.699219 -51.75 20.789062 -42.316406 20.789062 -40.757812 Z M 20.789062 -40.757812 "/></g></g></g><g fill="#8c52ff" fill-opacity="1"><g transform="translate(946.936262, 271.304109)"><g/></g></g><g fill="#ff5757" fill-opacity="1"><g transform="translate(972.576885, 271.304109)"><g><path d="M 37.277344 -59.074219 L 13.464844 -59.074219 C 10.351562 -59.074219 8.792969 -59.351562 8.792969 -59.351562 L 8.609375 -59.074219 C 9.34375 -53.855469 9.523438 -47.625 9.523438 -40.757812 L 9.523438 -18.316406 C 9.523438 -11.449219 9.34375 -4.945312 8.609375 0 L 8.699219 0.273438 C 8.699219 0.273438 10.257812 0 13.464844 0 C 16.578125 0 18.136719 0.273438 18.136719 0.273438 L 18.316406 0 C 17.585938 -5.21875 17.402344 -11.449219 17.402344 -18.316406 L 17.402344 -29.035156 C 21.796875 -29.035156 31.507812 -28.757812 37.828125 -28.117188 L 38.101562 -28.394531 C 37.917969 -29.21875 37.828125 -30.5 37.828125 -31.324219 C 37.828125 -32.148438 37.917969 -33.429688 38.101562 -34.253906 L 37.828125 -34.53125 C 32.421875 -34.070312 28.210938 -33.613281 17.402344 -33.613281 L 17.402344 -40.757812 C 17.402344 -42.316406 17.492188 -51.75 18.136719 -53.945312 C 30.40625 -53.945312 43.046875 -52.847656 43.046875 -52.847656 L 43.230469 -53.214844 C 43.140625 -53.945312 43.046875 -55.136719 43.046875 -55.960938 C 43.046875 -56.695312 43.140625 -57.792969 43.230469 -59.074219 L 43.046875 -59.351562 C 41.582031 -59.167969 39.476562 -59.074219 37.277344 -59.074219 Z M 37.277344 -59.074219 "/></g></g></g><g fill="#ff5757" fill-opacity="1"><g transform="translate(1021.482036, 271.304109)"><g><path d="M 32.515625 -56.234375 C 45.429688 -56.234375 53.671875 -47.445312 53.671875 -28.394531 C 53.671875 -12 46.070312 -3.113281 35.628906 -3.113281 C 24.636719 -3.113281 14.195312 -12.363281 14.195312 -29.949219 C 14.195312 -49.183594 23.722656 -56.234375 32.515625 -56.234375 Z M 63.105469 -30.132812 C 63.105469 -48.269531 50.191406 -60.265625 33.707031 -60.265625 C 17.308594 -60.265625 4.761719 -46.34375 4.761719 -28.394531 C 4.761719 -10.351562 18.042969 0.914062 33.796875 0.914062 C 51.289062 0.914062 63.105469 -11.816406 63.105469 -30.132812 Z M 63.105469 -30.132812 "/></g></g></g><g fill="#ff5757" fill-opacity="1"><g transform="translate(1092.09213, 271.304109)"><g><path d="M 49.824219 -40.757812 L 49.824219 -25.371094 C 49.824219 -15.113281 48.269531 -4.214844 32.789062 -4.214844 C 17.402344 -4.214844 17.402344 -19.691406 17.402344 -24.636719 L 17.402344 -40.757812 C 17.402344 -47.625 17.585938 -54.222656 18.316406 -59.074219 L 18.136719 -59.351562 C 17.035156 -59.167969 14.5625 -59.074219 13.464844 -59.074219 C 12.363281 -59.074219 9.890625 -59.167969 8.792969 -59.351562 L 8.609375 -59.074219 C 9.34375 -53.855469 9.523438 -47.625 9.523438 -40.757812 L 9.523438 -21.617188 C 9.523438 -2.929688 22.621094 0.914062 30.867188 0.914062 C 49.640625 0.914062 54.769531 -10.714844 54.769531 -27.019531 L 54.769531 -40.757812 C 54.769531 -47.625 54.953125 -54.222656 55.6875 -59.074219 L 55.503906 -59.351562 C 54.40625 -59.167969 53.398438 -59.074219 52.296875 -59.074219 C 51.199219 -59.074219 50.191406 -59.167969 49.09375 -59.351562 L 48.910156 -59.074219 C 49.640625 -53.855469 49.824219 -47.625 49.824219 -40.757812 Z M 49.824219 -40.757812 "/></g></g></g><g fill="#ff5757" fill-opacity="1"><g transform="translate(1158.214694, 271.304109)"><g><path d="M 9.890625 -59.074219 C 10.714844 -41.671875 10.441406 -14.5625 8.976562 0 L 9.160156 0.273438 C 10.257812 0.0898438 11.265625 0 12.363281 0 C 13.464844 0 14.472656 0.0898438 15.570312 0.273438 L 15.753906 0 C 15.019531 -5.21875 14.835938 -11.449219 14.835938 -18.316406 L 14.835938 -40.207031 C 14.835938 -45.796875 14.929688 -46.070312 18.410156 -41.671875 L 50.375 -1.28125 C 51.382812 0.0898438 52.847656 0.914062 54.3125 0.914062 C 55.59375 0.914062 55.960938 -0.183594 56.054688 -1.921875 C 56.511719 -22.804688 56.417969 -38.742188 57.886719 -59.074219 L 57.703125 -59.351562 C 56.601562 -59.167969 55.59375 -59.074219 54.496094 -59.074219 C 53.398438 -59.074219 52.390625 -59.167969 51.289062 -59.351562 L 51.105469 -59.074219 C 51.839844 -53.855469 52.023438 -47.625 52.023438 -40.757812 L 52.023438 -16.304688 C 51.839844 -11.265625 50.558594 -13.371094 46.621094 -18.59375 L 15.203125 -59.257812 C 15.203125 -59.257812 14.289062 -59.074219 13.921875 -59.074219 C 10.808594 -59.074219 10.074219 -59.351562 10.074219 -59.351562 Z M 9.890625 -59.074219 "/></g></g></g><g fill="#ff5757" fill-opacity="1"><g transform="translate(1226.718405, 271.304109)"><g><path d="M 17.402344 -7.511719 L 17.402344 -51.65625 C 17.402344 -54.863281 20.609375 -55.320312 25.09375 -55.320312 C 44.878906 -55.320312 50.832031 -40.117188 50.832031 -26.011719 C 50.832031 -7.511719 40.300781 -3.847656 27.386719 -3.847656 C 18.410156 -3.847656 17.402344 -4.578125 17.402344 -7.511719 Z M 13.464844 -59.074219 C 10.351562 -59.074219 8.792969 -59.351562 8.792969 -59.351562 L 8.609375 -59.074219 C 9.34375 -53.855469 9.523438 -47.625 9.523438 -40.757812 L 9.523438 -18.316406 C 9.523438 -11.449219 9.34375 -4.945312 8.609375 0 L 8.699219 0.273438 C 8.699219 0.273438 10.257812 0 13.464844 0 C 19.964844 0 20.789062 0.183594 30.226562 0.183594 C 43.140625 0.183594 60.265625 -5.679688 60.265625 -28.210938 C 60.265625 -45.246094 46.160156 -59.351562 28.574219 -59.351562 C 22.714844 -59.351562 19.324219 -59.074219 13.464844 -59.074219 Z M 13.464844 -59.074219 "/></g></g></g></svg>